<svg width="46" height="46" viewBox="0 0 46 46" fill="none" xmlns="http://www.w3.org/2000/svg">
<path d="M23 42.1667C33.5854 42.1667 42.1666 33.5855 42.1666 23C42.1666 12.4145 33.5854 3.83333 23 3.83333C12.4145 3.83333 3.83331 12.4145 3.83331 23C3.83331 33.5855 12.4145 42.1667 23 42.1667Z" stroke="white" stroke-width="3" stroke-linecap="round" stroke-linejoin="round"/>
<path d="M15.3334 5.75H17.25C13.5125 16.9433 13.5125 29.0567 17.25 40.25H15.3334" stroke="white" stroke-width="3" stroke-linecap="round" stroke-linejoin="round"/>
<path d="M28.75 5.75C32.4875 16.9433 32.4875 29.0567 28.75 40.25" stroke="white" stroke-width="3" stroke-linecap="round" stroke-linejoin="round"/>
<path d="M5.75 30.6667V28.75C16.9433 32.4875 29.0567 32.4875 40.25 28.75V30.6667" stroke="white" stroke-width="3" stroke-linecap="round" stroke-linejoin="round"/>
<path d="M5.75 17.25C16.9433 13.5125 29.0567 13.5125 40.25 17.25" stroke="white" stroke-width="3" stroke-linecap="round" stroke-linejoin="round"/>
</svg>
