<svg width="99" height="19" viewBox="0 0 99 19" fill="none" xmlns="http://www.w3.org/2000/svg">
<path d="M9.5 0.5L11.5206 6.71885H18.0595L12.7694 10.5623L14.7901 16.7812L9.5 12.9377L4.20993 16.7812L6.23056 10.5623L0.940492 6.71885H7.47937L9.5 0.5Z" fill="#FF961A"/>
<path d="M29.5 0.5L31.5206 6.71885H38.0595L32.7694 10.5623L34.7901 16.7812L29.5 12.9377L24.2099 16.7812L26.2306 10.5623L20.9405 6.71885H27.4794L29.5 0.5Z" fill="#FF961A"/>
<path d="M49.5 0.5L51.5206 6.71885H58.0595L52.7694 10.5623L54.7901 16.7812L49.5 12.9377L44.2099 16.7812L46.2306 10.5623L40.9405 6.71885H47.4794L49.5 0.5Z" fill="#FF961A"/>
<path d="M69.5 0.5L71.5206 6.71885H78.0595L72.7694 10.5623L74.7901 16.7812L69.5 12.9377L64.2099 16.7812L66.2306 10.5623L60.9405 6.71885H67.4794L69.5 0.5Z" fill="#FF961A"/>
<path d="M89.5 0.5L91.5206 6.71885H98.0595L92.7694 10.5623L94.7901 16.7812L89.5 12.9377L84.2099 16.7812L86.2306 10.5623L80.9405 6.71885H87.4794L89.5 0.5Z" fill="#FF961A"/>
</svg>
