<svg width="46" height="47" viewBox="0 0 46 47" fill="none" xmlns="http://www.w3.org/2000/svg">
<path d="M32.0083 36.8783H13.9917C13.1867 36.8783 12.2858 36.2458 12.0175 35.4791L4.0825 13.2841C2.95167 10.1025 4.27417 9.12498 6.99583 11.08L14.4708 16.4275C15.7167 17.29 17.135 16.8491 17.6717 15.45L21.045 6.46082C22.1183 3.58582 23.9008 3.58582 24.9742 6.46082L28.3475 15.45C28.8842 16.8491 30.3025 17.29 31.5292 16.4275L38.5442 11.425C41.5342 9.27831 42.9717 10.3708 41.745 13.84L34.0017 35.5175C33.7142 36.2458 32.8133 36.8783 32.0083 36.8783Z" stroke="white" stroke-width="3" stroke-linecap="round" stroke-linejoin="round"/>
<path d="M12.4583 42.6666H33.5417" stroke="white" stroke-width="3" stroke-linecap="round" stroke-linejoin="round"/>
<path d="M18.2083 27.3334H27.7917" stroke="white" stroke-width="3" stroke-linecap="round" stroke-linejoin="round"/>
</svg>
